<?xml version="1.0" encoding="UTF-8" standalone="no"?>
<!-- Created with Inkscape (http://www.inkscape.org/) -->

<svg
   width="512"
   height="512"
   viewBox="0 0 135.46666 135.46667"
   version="1.1"
   id="svg5"
   xml:space="preserve"
   inkscape:version="1.2.2 (b0a8486541, 2022-12-01)"
   sodipodi:docname="debian.svg"
   xmlns:inkscape="http://www.inkscape.org/namespaces/inkscape"
   xmlns:sodipodi="http://sodipodi.sourceforge.net/DTD/sodipodi-0.dtd"
   xmlns="http://www.w3.org/2000/svg"
   xmlns:svg="http://www.w3.org/2000/svg"><sodipodi:namedview
     id="namedview7"
     pagecolor="#ffffff"
     bordercolor="#000000"
     borderopacity="0.25"
     inkscape:showpageshadow="2"
     inkscape:pageopacity="0.0"
     inkscape:pagecheckerboard="0"
     inkscape:deskcolor="#d1d1d1"
     inkscape:document-units="mm"
     showgrid="false"
     inkscape:zoom="1.484161"
     inkscape:cx="145.53677"
     inkscape:cy="252.66801"
     inkscape:window-width="2560"
     inkscape:window-height="1013"
     inkscape:window-x="0"
     inkscape:window-y="0"
     inkscape:window-maximized="1"
     inkscape:current-layer="layer1" /><defs
     id="defs2" /><g
     inkscape:label="Layer 1"
     inkscape:groupmode="layer"
     id="layer1"><path
       style="fill:#232634;stroke-width:1;fill-opacity:1"
       d="M 70.528133,131.7247 C 66.323798,131.51681 64.082606,131.10308 60.385237,129.85229 51.64593,126.89583 44.633357,122.40443 37.353529,115.10098 27.262726,104.97744 20.412703,91.892965 18.150968,78.421461 c -0.694373,-4.135875 -0.844636,-7.28544 -0.793891,-16.640498 0.02788,-5.134126 -0.02168,-9.790266 -0.109958,-10.346979 -0.139203,-0.877419 0.01896,-1.5564 1.187432,-5.098965 1.303825,-3.9528 2.607116,-7.319503 4.056027,-10.477738 0.528927,-1.15291 0.807341,-1.518307 1.156878,-1.518307 0.652419,0 1.620471,-1.149815 2.232584,-2.651786 1.217128,-2.986517 2.560588,-5.668155 2.899456,-5.787538 0.200167,-0.07052 0.64169,-0.715744 0.981178,-1.433835 0.779023,-1.647798 2.421088,-3.439155 7.042122,-7.682369 3.083068,-2.831003 3.679423,-3.290963 3.740097,-2.884693 0.06765,0.452966 0.135788,0.42965 1.084388,-0.371066 2.707195,-2.285148 7.344226,-4.7986506 14.47852,-7.8480826 3.060181,-1.308021 4.090722,-1.658418 4.319386,-1.468644 0.222429,0.184599 0.935556,0.127704 2.749685,-0.219376 3.276873,-0.626932 3.541774,-0.59865 2.105782,0.224824 -0.661028,0.379069 -1.167131,0.722182 -1.124672,0.762475 0.04246,0.04029 0.603303,-0.01081 1.246319,-0.113573 0.653638,-0.104455 1.794166,-0.09645 2.586744,0.01816 0.779694,0.112746 1.569457,0.213444 1.755028,0.223773 0.196761,0.01095 0.126442,0.103576 -0.168701,0.222209 -0.278356,0.111886 -0.506102,0.30791 -0.506102,0.435611 0,0.34098 2.003198,0.283812 4.405843,-0.125734 1.657065,-0.282457 2.341049,-0.306168 3.244248,-0.112467 1.560374,0.33464 1.600871,0.325465 1.437436,-0.325708 l -0.14335,-0.571157 0.870102,0.342331 c 0.478557,0.188282 2.236578,0.758608 3.906716,1.267391 1.670137,0.508783 4.293992,1.524127 5.830785,2.25632 l 2.794173,1.331259 1.329045,-0.340486 c 1.594359,-0.408456 2.201554,-0.423208 3.342991,-0.08122 0.545437,0.163415 0.918328,0.433672 1.008672,0.7310366 0.210131,0.691608 0.720907,1.207179 2.181006,2.201465 1.533273,1.044111 2.041893,1.033731 1.152283,-0.02351 l -0.631951,-0.751031 0.662571,0.343294 c 1.16065,0.601361 4.26231,2.916975 6.35217,4.742349 1.99935,1.746334 4.63773,4.61331 6.38161,6.934538 1.93282,2.572721 4.49071,7.375275 5.24914,9.855513 l 0.17196,0.562336 -0.48331,-0.562336 -0.4833,-0.562336 0.11069,2.249343 c 0.0835,1.695897 0.27802,2.743993 0.79076,4.259715 0.90788,2.683817 0.84876,3.010066 -0.0841,0.463906 -1.40418,-3.832721 -3.24005,-7.344308 -3.46865,-6.634701 -0.16628,0.516139 -0.4956,0.644884 -1.31105,0.512555 -0.58127,-0.09433 -0.78064,-0.03178 -0.90134,0.282761 -0.21894,0.570553 0.28609,2.784941 0.75276,3.300607 0.36081,0.398692 0.41161,0.403112 0.66413,0.05777 0.24092,-0.329482 0.32879,-0.26545 0.73892,0.538467 0.25602,0.501831 0.46548,1.182278 0.46548,1.512106 0,0.329828 0.21248,1.504728 0.47218,2.61089 0.25969,1.106159 0.43273,2.050638 0.38454,2.098837 -0.0482,0.04819 -0.33519,-0.312904 -0.63775,-0.802453 -0.81342,-1.316148 -1.17819,-1.173975 -0.74614,0.290815 0.4862,1.648388 0.9297,2.667715 1.37457,3.159291 0.35742,0.394943 0.3569,0.433446 -0.009,0.637979 -0.45883,0.256774 -0.5122,1.397955 -0.14538,3.10839 0.23692,1.104733 0.35942,1.227867 1.14454,1.150509 0.31737,-0.03127 0.2387,0.358822 -0.50511,2.504608 -0.48455,1.397906 -0.8913,2.99714 -0.90386,3.553853 l -0.0229,1.012204 -0.34606,-0.843504 c -0.45962,-1.120269 -0.7349,-1.066092 -0.7349,0.144635 0,0.670847 -0.10833,1.029714 -0.3374,1.117614 -0.21667,0.08314 -0.33859,0.433837 -0.34073,0.980036 -0.006,1.532158 -0.62449,3.531226 -2.0207,6.531088 -0.75557,1.623396 -1.4347,3.327152 -1.50918,3.786123 l -0.13542,0.834494 -0.60324,-0.739117 -0.60323,-0.739118 -0.824,1.317335 c -0.68022,1.087465 -0.82676,1.534436 -0.83981,2.561509 -0.009,0.684297 -0.11176,1.446618 -0.22905,1.694046 -0.16331,0.344548 -0.18903,0.251002 -0.10983,-0.399567 l 0.1034,-0.849437 -0.60539,0.438844 c -0.33296,0.241364 -1.26332,1.113652 -2.06746,1.938417 -4.30819,4.418691 -9.498457,7.395978 -15.520468,8.902989 -1.909697,0.4779 -2.627105,0.533967 -6.74803,0.527404 -3.865234,-0.006 -4.956824,-0.08476 -6.74803,-0.485909 -3.770013,-0.844425 -5.417349,-1.471986 -6.414211,-2.443719 -0.49708,-0.484549 -1.892546,-1.68056 -3.101037,-2.657787 -5.241389,-4.238389 -8.212053,-8.401672 -9.554697,-13.390575 -0.524471,-1.948789 -0.580125,-2.557201 -0.587853,-6.426337 l -0.0085,-4.273752 0.692251,-1.349606 c 0.380737,-0.742283 0.871503,-1.906318 1.09059,-2.586745 0.64948,-2.017103 1.651168,-3.869428 2.67605,-4.948555 0.528728,-0.556713 1.284895,-1.531648 1.680372,-2.166522 1.362679,-2.187566 4.245834,-4.484408 7.098577,-5.655027 2.228985,-0.914662 3.478492,-1.18531 6.091552,-1.319447 4.728795,-0.242747 8.477508,1.103726 12.519155,4.49666 1.566355,1.314943 2.008693,2.040114 0.598044,0.980435 -1.081203,-0.812202 -3.210163,-1.833289 -5.019562,-2.407471 -2.185961,-0.693678 -6.317025,-0.868619 -8.729311,-0.369665 -7.460622,1.543143 -13.032976,6.863189 -14.900714,14.226028 -0.379512,1.49612 -0.550405,2.789392 -0.550405,4.16537 0,1.792445 0.213485,2.48848 0.525833,1.7144 0.0624,-0.154642 0.121445,0.181039 0.131211,0.745959 0.06652,3.847886 1.974078,8.689724 4.829572,12.258648 4.693532,5.866192 12.174819,9.266164 18.581371,8.444558 1.078466,-0.13831 2.557162,-0.459852 3.285994,-0.714547 0.72883,-0.254695 1.692973,-0.492172 2.14254,-0.527735 1.255779,-0.09933 3.536917,-1.297027 5.015469,-2.633338 0.87304,-0.789049 1.194511,-0.992673 0.930102,-0.589127 -0.393081,0.599916 -0.392091,0.616693 0.03639,0.616693 0.242254,0 1.139569,-0.499444 1.994042,-1.109873 1.997808,-1.42723 6.639047,-5.509022 6.997657,-6.154167 0.15169,-0.272906 0.27939,-0.961886 0.28378,-1.531067 0.0127,-1.646308 0.34875,-2.308965 1.43984,-2.839058 0.90838,-0.441326 1.01509,-0.59631 1.77057,-2.571603 0.81352,-2.12706 1.30283,-4.201299 1.28827,-5.461064 l -0.008,-0.689725 -0.34177,0.562336 -0.34178,0.562336 0.15012,-0.674803 c 0.26624,-1.196777 0.38318,-12.287607 0.13495,-12.798781 -0.12616,-0.259789 -0.34419,-1.332718 -0.48451,-2.384286 -0.50044,-3.74825 -2.68141,-9.149904 -5.18045,-12.82991 -2.483166,-3.656616 -5.963084,-7.361563 -9.187262,-9.781351 -4.398077,-3.300812 -9.910145,-5.152766 -17.039986,-5.725125 -2.79215,-0.224145 -7.503244,-0.02669 -8.501343,0.35632 -0.198561,0.07619 -0.486255,0.03752 -0.63932,-0.08594 -0.356647,-0.287669 -2.698659,0.02183 -4.664524,0.616415 -0.80414,0.243217 -2.423668,0.989113 -3.59895,1.657548 -1.175282,0.668434 -2.820114,1.439274 -3.655183,1.712976 -0.926976,0.303826 -1.518306,0.621905 -1.518306,0.816703 0,0.175484 0.0253,0.317862 0.05624,0.316393 0.03093,-0.0014 0.612946,-0.152097 1.293372,-0.334732 1.576912,-0.423261 1.601726,-0.419298 0.758312,0.121076 -0.444134,0.284557 -1.430537,0.539797 -2.67383,0.691877 -2.386875,0.291962 -3.359167,0.617822 -4.895325,1.640648 -1.567511,1.043702 -3.323677,2.832356 -2.780913,2.832356 0.219464,0 0.61763,-0.116995 0.884815,-0.259988 0.472459,-0.252851 0.475937,-0.245136 0.126702,0.281168 -0.25622,0.386129 -0.652592,0.583459 -1.38363,0.688823 -1.428353,0.205869 -3.754727,1.48591 -6.007401,3.305451 -3.361816,2.715427 -9.137654,8.99814 -10.318336,11.223847 -0.245267,0.462359 -0.219185,0.506103 0.301776,0.506103 0.313636,0 0.570252,0.07351 0.570252,0.163358 0,0.08985 -1.020158,2.198661 -2.267015,4.68625 l -2.267015,4.52289 -0.677558,6.279301 c -0.451767,4.186747 -0.688652,7.59107 -0.710849,10.215649 -0.03647,4.310214 0.20718,5.984157 1.109661,7.624381 0.491469,0.893227 0.530023,1.15721 0.398803,2.730732 -0.137536,1.649105 -0.108861,1.809149 0.538168,3.003768 0.492132,0.908609 0.595059,1.261853 0.367688,1.261853 -0.173676,0 -0.31577,0.08537 -0.31577,0.189718 0,0.38935 0.860722,2.672382 1.434094,3.803874 0.661303,1.305025 1.198867,1.733396 2.450833,1.953014 0.466569,0.08187 1.189694,0.448546 1.606946,0.814899 0.700443,0.614994 2.337237,3.435864 2.715875,4.680574 l 0.162071,0.53278 -0.726321,-0.42031 c -0.399475,-0.23117 -0.839332,-0.59744 -0.977464,-0.81394 -0.138131,-0.2165 -0.32995,-0.39364 -0.426263,-0.39364 -0.507945,0 1.013824,3.32378 2.440479,5.33041 0.689825,0.97024 0.723823,1.0925 0.402553,1.4475 -0.473123,0.52279 -0.254407,1.097835 0.829997,2.182235 0.512501,0.5125 0.781734,0.93359 0.629379,0.98437 -0.64435,0.21479 0.335408,1.97076 3.472635,6.22377 1.33128,1.80476 1.756254,2.24625 1.871966,1.94471 0.110954,-0.28914 0.336456,0.009 0.871273,1.15167 0.396867,0.84797 1.19154,2.1744 1.765941,2.94761 0.995051,1.33945 1.089526,1.40591 2.0008,1.40737 0.828075,0.002 1.023863,0.10059 1.458845,0.73957 0.747765,1.09845 1.81971,2.0627 3.24067,2.91509 l 1.268798,0.76112 -0.420294,0.54678 c -0.231161,0.30074 -0.422544,0.60408 -0.425295,0.67411 -0.0027,0.07 0.55907,0.36111 1.248493,0.64685 0.689424,0.28575 1.542686,0.76289 1.896141,1.0603 0.629357,0.52957 3.863245,2.13695 4.008033,1.99217 0.04037,-0.0404 -0.0942,-0.41178 -0.299046,-0.82535 -0.271621,-0.54838 0.165354,-0.19378 1.614188,1.30988 3.375848,3.5036 5.000357,4.25467 11.799443,5.45531 1.438201,0.25398 2.855287,0.55799 3.149081,0.67558 0.638937,0.25575 0.840833,0.25544 -4.192659,0.007 z M 78.516512,89.085095 C 71.79185,87.825613 66.027114,84.976962 61.621384,80.736352 c -1.065346,-1.025419 -2.367477,-2.496123 -2.89362,-3.268228 -0.828299,-1.215509 -0.534371,-0.9663 2.191071,1.857717 1.731237,1.793851 3.463553,3.444407 3.849594,3.667901 0.869479,0.503371 0.909409,0.301555 0.07864,-0.397494 -0.342789,-0.288437 -1.12148,-1.167581 -1.730427,-1.95365 l -1.107173,-1.429224 1.336789,1.243077 c 2.353262,2.18829 6.161063,4.640662 6.345667,4.086852 0.05386,-0.161571 0.545225,0.127538 1.220017,0.717829 0.621411,0.5436 1.658052,1.247002 2.303642,1.563111 1.693886,0.829419 5.35808,1.506875 8.990596,1.66223 2.322999,0.09935 2.997195,0.189736 2.59274,0.347592 -0.593224,0.23153 -5.367894,0.42231 -6.28241,0.25103 z M 57.802091,79.459549 c -1.751138,-2.091406 -2.903684,-3.938131 -2.903684,-4.652569 0,-0.451162 0.0801,-0.660389 0.20326,-0.530914 0.340483,0.357948 3.458455,5.737937 3.367851,5.811147 -0.04655,0.03761 -0.346889,-0.24484 -0.667427,-0.627664 z m 0.127581,-5.8133 -0.354306,-0.731036 0.460996,0.53102 c 0.253546,0.292064 0.460994,0.62103 0.460994,0.731036 0,0.393228 -0.219046,0.188331 -0.567684,-0.53102 z M 79.804436,71.92958 c -2.413378,-0.629358 -2.41704,-0.92631 -0.01142,-0.92631 1.122703,0 2.382897,-0.05912 2.800432,-0.131373 l 0.759153,-0.131374 -0.840199,0.806178 c -0.462112,0.443397 -0.917604,0.800341 -1.012205,0.793208 -0.0946,-0.0071 -0.857695,-0.191779 -1.695761,-0.410329 z m 9.872009,-4.591131 c -0.394042,-0.288132 -0.376579,-0.323829 0.294421,-0.601767 0.392324,-0.162506 0.862971,-0.584867 1.045886,-0.938583 0.182914,-0.353716 0.382638,-0.643121 0.443831,-0.643121 0.13504,0 -0.644018,1.529369 -1.063824,2.088389 -0.260393,0.346748 -0.358439,0.359691 -0.720314,0.09508 z m -1.037887,-0.6387 c 0,-0.342137 1.525691,-2.894377 1.730215,-2.894377 0.06655,0 -0.04753,0.257215 -0.253522,0.57159 -0.205985,0.314375 -0.62251,1.037993 -0.925607,1.608042 -0.303096,0.570049 -0.551086,0.891685 -0.551086,0.714745 z m 4.921083,-10.258905 c -0.31157,-0.912687 -0.290772,-1.354903 0.08522,-1.812193 0.365662,-0.444722 0.609504,0.09056 0.613607,1.346977 0.0043,1.339482 -0.325425,1.559032 -0.698831,0.465216 z M 16.314152,43.038294 c -0.187874,-0.465891 0.232566,-2.07993 0.60113,-2.307713 0.256769,-0.158692 0.0783,1.387497 -0.261879,2.268366 -0.163959,0.42463 -0.182994,0.426836 -0.339251,0.03934 z M 19.481598,32.43695 c 0.179883,-0.430506 0.327051,-1.039041 0.327051,-1.352299 0,-0.453213 0.111667,-0.569561 0.546635,-0.569561 0.491419,0 0.527864,0.06249 0.360828,0.61857 -0.312454,1.040209 -0.456044,1.278271 -1.019138,1.6897 l -0.542418,0.396326 z M 72.330818,4.4227084 c -0.39864,-0.171302 -0.379429,-0.195116 0.168701,-0.209125 0.340213,-0.0087 0.618569,0.08541 0.618569,0.209125 0,0.264008 -0.172889,0.264008 -0.78727,0 z"
       id="path8135" /></g></svg>
