<?xml version="1.0" encoding="UTF-8" standalone="no"?>
<!-- Created with Inkscape (http://www.inkscape.org/) -->

<svg
   width="512"
   height="512"
   viewBox="0 0 135.46666 135.46667"
   version="1.1"
   id="svg5"
   xml:space="preserve"
   inkscape:version="1.2.2 (b0a8486541, 2022-12-01)"
   sodipodi:docname="ubuntu.svg"
   xmlns:inkscape="http://www.inkscape.org/namespaces/inkscape"
   xmlns:sodipodi="http://sodipodi.sourceforge.net/DTD/sodipodi-0.dtd"
   xmlns="http://www.w3.org/2000/svg"
   xmlns:svg="http://www.w3.org/2000/svg"><sodipodi:namedview
     id="namedview7"
     pagecolor="#ffffff"
     bordercolor="#000000"
     borderopacity="0.25"
     inkscape:showpageshadow="2"
     inkscape:pageopacity="0.0"
     inkscape:pagecheckerboard="0"
     inkscape:deskcolor="#d1d1d1"
     inkscape:document-units="mm"
     showgrid="false"
     inkscape:zoom="1.484161"
     inkscape:cx="145.53677"
     inkscape:cy="252.66801"
     inkscape:window-width="2560"
     inkscape:window-height="1013"
     inkscape:window-x="0"
     inkscape:window-y="0"
     inkscape:window-maximized="1"
     inkscape:current-layer="layer1" /><defs
     id="defs2" /><g
     inkscape:label="Layer 1"
     inkscape:groupmode="layer"
     id="layer1"><path
       style="fill:#dce0e8;stroke-width:0.999998;fill-opacity:1"
       d="M 53.994679,133.08765 C 41.156949,130.35882 30.008319,124.34894 20.813198,115.20054 11.922289,106.35485 7.0656512,98.186973 3.2276268,85.625224 1.5631831,80.177558 1.4255523,78.848835 1.4162304,68.137585 1.4076985,58.308689 1.6212975,55.772268 2.8206391,51.461352 6.357078,38.750073 11.837363,29.28008 20.78878,20.412216 46.841151,-5.3969941 88.658508,-5.2535851 114.6462,20.734091 c 9.66928,9.669297 15.47728,20.498857 18.31781,34.155472 1.68954,8.122846 1.37166,21.522536 -0.6942,29.261864 -6.74531,25.269913 -26.12642,43.718303 -51.44788,48.971943 -7.740292,1.60596 -19.175711,1.59072 -26.827251,-0.0357 z m 41.136515,-18.09838 c 7.412126,-4.95166 4.941466,-15.733669 -3.851204,-16.806769 -6.752687,-0.824128 -12.290569,6.931189 -9.19619,12.878449 1.025961,1.97188 3.486188,4.39941 5.030937,4.96411 2.342582,0.85634 5.865447,0.40115 8.016457,-1.03579 z m -19.134005,-8.94202 c 1.308713,-0.35204 2.302,-1.47728 3.643209,-4.12721 2.507644,-4.954578 5.550575,-6.69445 11.404307,-6.520781 l 4.261164,0.126362 2.513027,-2.917858 C 102.1961,87.525481 106.29663,77.71502 106.31649,72.277514 l 0.007,-2.152801 H 99.832394 93.3409 l -0.814584,3.943796 c -1.660413,8.038985 -9.090037,15.974454 -17.149858,18.317513 -4.404468,1.280426 -11.459121,1.270909 -15.720963,-0.02004 -1.804602,-0.547103 -3.31814,-0.93115 -3.363419,-0.85344 -3.812647,6.544535 -6.309726,11.254318 -6.085705,11.478338 0.648651,0.64865 7.98672,2.9555 11.238044,3.53285 3.579959,0.63573 11.367293,0.38132 14.552275,-0.47545 z M 49.51256,94.969352 52.648052,89.375687 49.472564,86.200193 c -10.08277,-10.082769 -10.08277,-26.704847 0,-36.787617 l 3.175488,-3.17549 -3.135492,-5.59367 c -1.724522,-3.076519 -3.365009,-5.600919 -3.645528,-5.609779 -0.280519,-0.0088 -2.683116,2.144978 -5.339101,4.786301 -5.107527,5.079332 -7.791304,9.114975 -9.752163,14.664502 -1.161888,3.288317 -1.160446,3.42438 0.05003,4.719769 1.82463,1.952621 3.298934,5.881279 3.282295,8.746498 -0.01602,2.760841 -1.840349,7.320666 -3.467542,8.667011 -1.282194,1.060894 -0.837707,2.874362 2.258892,9.216077 1.521041,3.115009 3.761019,6.069639 7.299111,9.627821 2.807538,2.823504 5.346241,5.126384 5.641562,5.117514 0.29532,-0.007 1.947917,-2.533258 3.672439,-5.609778 z M 27.797547,74.701084 c 4.421561,-3.88218 4.41857,-9.90985 -0.0068,-13.795415 -5.641004,-4.952868 -14.855008,-0.75701 -14.86241,6.768008 -0.0053,5.442534 3.584051,9.020739 9.082488,9.054137 2.93263,0.01777 3.806917,-0.288391 5.786772,-2.02673 z M 106.31649,63.335179 c -0.02,-5.5623 -4.02661,-15.139077 -8.51176,-20.346728 l -2.498861,-2.901377 -4.261164,0.126434 c -5.827045,0.172896 -8.898465,-1.570886 -11.373788,-6.457392 -0.997394,-1.968899 -1.909518,-3.675907 -2.02696,-3.793347 -0.901532,-0.901535 -10.64995,-1.51303 -14.836866,-0.930685 -4.196916,0.583736 -11.743861,2.734488 -12.60022,3.590844 -0.209122,0.209122 4.455755,8.986394 6.117071,11.509691 0.06252,0.09495 1.427026,-0.291672 3.032218,-0.859204 4.315859,-1.525917 12.761557,-1.363147 17.212392,0.331723 7.996405,3.045013 14.364368,10.222145 15.97093,18.000317 l 0.801915,3.882525 h 6.491483 6.4915 l -0.007,-2.152803 z M 95.410768,36.061555 c 3.794218,-2.486075 5.208712,-7.683277 3.16506,-11.629236 -3.645168,-7.038245 -12.8024,-6.971893 -16.492028,0.119492 -3.094379,5.947274 2.443503,13.702575 9.19619,12.878449 1.380063,-0.168439 3.238934,-0.784354 4.130778,-1.368714 z"
       id="path11135" /></g></svg>
