<?xml version="1.0" encoding="UTF-8" standalone="no"?>
<!-- Created with Inkscape (http://www.inkscape.org/) -->

<svg
   width="512"
   height="512"
   viewBox="0 0 135.46666 135.46667"
   version="1.1"
   id="svg5"
   xml:space="preserve"
   inkscape:version="1.2.2 (b0a8486541, 2022-12-01)"
   sodipodi:docname="arch.svg"
   xmlns:inkscape="http://www.inkscape.org/namespaces/inkscape"
   xmlns:sodipodi="http://sodipodi.sourceforge.net/DTD/sodipodi-0.dtd"
   xmlns="http://www.w3.org/2000/svg"
   xmlns:svg="http://www.w3.org/2000/svg"><sodipodi:namedview
     id="namedview7"
     pagecolor="#ffffff"
     bordercolor="#000000"
     borderopacity="0.25"
     inkscape:showpageshadow="2"
     inkscape:pageopacity="0.0"
     inkscape:pagecheckerboard="0"
     inkscape:deskcolor="#d1d1d1"
     inkscape:document-units="mm"
     showgrid="false"
     inkscape:zoom="1.0494603"
     inkscape:cx="69.559563"
     inkscape:cy="287.76696"
     inkscape:window-width="2560"
     inkscape:window-height="1013"
     inkscape:window-x="0"
     inkscape:window-y="0"
     inkscape:window-maximized="1"
     inkscape:current-layer="layer1" /><defs
     id="defs2" /><g
     inkscape:label="Layer 1"
     inkscape:groupmode="layer"
     id="layer1"><path
       style="fill:#11111b;fill-opacity:1;stroke-width:0.999999"
       d="M 1.2720071,133.16582 C 8.418732,121.24138 42.585537,57.621867 47.573264,46.951636 l 1.892095,-4.047751 3.754058,2.611709 c 4.285204,2.981228 14.927838,8.459216 15.439841,7.947212 0.187568,-0.187568 0.227332,-0.417187 0.08837,-0.510259 C 65.322669,50.658683 58.509275,45.016461 55.591599,42.057941 L 51.784147,38.197189 54.60021,31.864007 C 56.149045,28.380756 59.774311,19.78639 62.656359,12.765414 L 67.896443,0 l 6.648,15.494188 c 8.55387,19.936124 25.126865,53.200186 41.952897,84.204693 l 2.7347,5.039099 -3.23515,-1.64078 c -3.45311,-1.75132 -12.88088,-5.102252 -14.35511,-5.102252 -0.48782,0 1.67817,1.539745 4.81331,3.421662 3.13515,1.88191 8.37673,5.49754 11.64797,8.03472 5.91453,4.58735 5.97159,4.65702 10.234,12.49619 2.35748,4.33572 4.92605,9.00984 5.70798,10.38694 l 1.42163,2.50381 -8.92688,-4.88274 c -14.8797,-8.13875 -28.848877,-14.08248 -38.640204,-16.44097 l -4.24476,-1.02246 -0.02546,-8.00657 C 83.606903,97.385474 83.423071,95.98381 82.006762,92.105647 78.067309,81.318612 70.979511,76.382951 63.775922,79.410406 c -2.632988,1.106565 -6.888585,5.849704 -8.389045,9.35014 -2.66963,6.227991 -3.747556,15.734634 -2.427674,21.410564 l 0.504767,2.17066 -3.702802,0.74851 c -5.380457,1.08765 -15.371172,4.62196 -23.685951,8.37915 -6.572496,2.9699 -20.8220536,10.41954 -24.5730428,12.84673 L 0,135.28819 Z"
       id="path2456" /></g></svg>
