<?xml version="1.0" encoding="UTF-8" standalone="no"?>
<!-- Created with Inkscape (http://www.inkscape.org/) -->

<svg
   width="512"
   height="512"
   viewBox="0 0 135.46666 135.46667"
   version="1.1"
   id="svg5"
   xml:space="preserve"
   inkscape:version="1.2.2 (b0a8486541, 2022-12-01)"
   sodipodi:docname="fedora.svg"
   xmlns:inkscape="http://www.inkscape.org/namespaces/inkscape"
   xmlns:sodipodi="http://sodipodi.sourceforge.net/DTD/sodipodi-0.dtd"
   xmlns="http://www.w3.org/2000/svg"
   xmlns:svg="http://www.w3.org/2000/svg"><sodipodi:namedview
     id="namedview7"
     pagecolor="#ffffff"
     bordercolor="#000000"
     borderopacity="0.25"
     inkscape:showpageshadow="2"
     inkscape:pageopacity="0.0"
     inkscape:pagecheckerboard="0"
     inkscape:deskcolor="#d1d1d1"
     inkscape:document-units="mm"
     showgrid="false"
     inkscape:zoom="1.0494603"
     inkscape:cx="362.09088"
     inkscape:cy="191.52702"
     inkscape:window-width="2560"
     inkscape:window-height="1013"
     inkscape:window-x="0"
     inkscape:window-y="0"
     inkscape:window-maximized="1"
     inkscape:current-layer="layer1" /><defs
     id="defs2" /><g
     inkscape:label="Layer 1"
     inkscape:groupmode="layer"
     id="layer1"><path
       style="fill:#11111b;stroke-width:1;fill-opacity:1"
       d="m 21.224047,123.71435 c -4.641576,-0.82821 -8.561007,-4.16871 -10.013358,-8.53429 -0.726754,-2.18454 -0.669348,-0.21075 -0.705253,-24.249186 -0.03788,-25.342907 -0.0032,-27.017803 0.650757,-31.361635 2.341189,-15.55366 11.209669,-29.42783 24.485344,-38.305802 9.334399,-6.242283 20.470863,-9.661659 31.498287,-9.67134 7.514967,-0.0066 14.354174,1.191284 21.008146,3.679564 15.95482,5.966365 28.44717,18.723717 33.88857,34.607445 1.52546,4.452919 2.44768,8.970246 2.82608,13.843043 0.14472,1.863728 0.14557,6.295289 10e-4,8.114881 -0.45013,5.686833 -1.7238,11.199166 -3.79394,16.419975 -0.72078,1.817749 -2.4693,5.424269 -3.47179,7.160929 -5.47079,9.477306 -13.77103,17.291026 -23.674561,22.286846 -6.800957,3.43072 -13.771694,5.38504 -21.480574,6.0223 -2.474449,0.20455 -50.067801,0.19272 -51.219243,-0.0128 z m 31.780031,-15.92518 c 6.049648,-0.96378 11.388364,-4.41874 14.690766,-9.507166 1.536931,-2.36815 2.558732,-4.99604 3.09545,-7.96093 0.134105,-0.740859 0.163247,-1.891899 0.196329,-7.756176 l 0.03884,-6.886204 4.503809,-0.06867 c 2.477096,-0.0378 4.718426,-0.108267 4.980743,-0.156627 1.151378,-0.212289 2.496126,-1.170575 3.031886,-2.160563 0.556034,-1.027449 0.741501,-2.494986 0.461486,-3.651572 -0.310608,-1.282923 -1.224496,-2.46211 -2.325748,-3.000901 -1.07074,-0.523861 -1.506027,-0.557302 -6.301877,-0.484128 l -4.370916,0.06667 0.02703,-7.813883 0.02703,-7.813884 0.260157,-0.763751 c 1.092678,-3.207879 4.251795,-5.561628 7.711527,-5.745596 1.92123,-0.102165 3.745919,0.258442 5.39401,1.065985 3.03522,1.487229 4.333503,3.905267 4.10158,7.639161 -0.104587,1.683676 -0.07992,2.184903 0.143245,2.911808 0.229451,0.747347 0.486624,1.182977 1.042147,1.76532 2.599527,2.725011 7.1071,1.652733 8.162725,-1.941782 0.388575,-1.323151 0.414734,-4.331629 0.05614,-6.460714 -0.360964,-2.143288 -1.43518,-4.703854 -2.741296,-6.534326 -0.753113,-1.055449 -2.341196,-2.736893 -3.36425,-3.562023 -3.330125,-2.685875 -7.417787,-4.182426 -11.839642,-4.33466 -3.004809,-0.103458 -5.693588,0.454779 -8.387439,1.741354 -1.343033,0.641426 -2.006176,1.037522 -3.157992,1.886235 -3.892897,2.868503 -6.471504,7.244236 -6.970203,11.828014 -0.06731,0.618704 -0.100993,7.128497 -0.101243,19.571196 -3.59e-4,20.469337 0.02568,19.499498 -0.572941,21.286277 -1.616397,4.82462 -6.176559,7.83266 -11.503528,7.58816 -0.682611,-0.0314 -1.541836,-0.12223 -1.909388,-0.202 -3.075574,-0.66742 -5.686026,-2.41249 -7.351734,-4.91458 -1.30862,-1.9657 -1.888843,-3.879999 -1.882757,-6.211629 0.01452,-5.559649 3.828065,-9.952808 9.759573,-11.242884 1.03938,-0.22607 1.316667,-0.242356 5.203072,-0.305664 2.257845,-0.03676 4.115911,-0.07401 4.129039,-0.08279 0.01316,-0.0088 0.02384,-2.121004 0.02384,-4.693901 v -4.677991 l -3.890369,2.88e-4 c -2.139708,1.91e-4 -4.384426,0.0441 -4.988271,0.09765 -4.147407,0.367672 -8.217539,1.921892 -11.453642,4.373683 -0.984199,0.745664 -2.946255,2.665028 -3.7239,3.642869 -2.251194,2.83074 -3.718852,6.082634 -4.395081,9.7382 -0.260563,1.408585 -0.354297,3.966 -0.195947,5.34628 0.419177,3.653969 1.769348,7.061519 3.990819,10.072009 0.897682,1.216526 3.195077,3.481776 4.455263,4.392946 3.034414,2.19398 6.43307,3.53943 10.128928,4.00982 1.3328,0.16964 4.492938,0.12127 5.812604,-0.0889 z"
       id="path18528" /></g></svg>
