<?xml version="1.0" encoding="UTF-8" standalone="no"?>
<!-- Created with Inkscape (http://www.inkscape.org/) -->

<svg
   width="512"
   height="512"
   viewBox="0 0 135.46666 135.46667"
   version="1.1"
   id="svg5"
   xml:space="preserve"
   inkscape:version="1.2.2 (b0a8486541, 2022-12-01)"
   sodipodi:docname="gentoo.svg"
   xmlns:inkscape="http://www.inkscape.org/namespaces/inkscape"
   xmlns:sodipodi="http://sodipodi.sourceforge.net/DTD/sodipodi-0.dtd"
   xmlns="http://www.w3.org/2000/svg"
   xmlns:svg="http://www.w3.org/2000/svg"><sodipodi:namedview
     id="namedview7"
     pagecolor="#ffffff"
     bordercolor="#000000"
     borderopacity="0.25"
     inkscape:showpageshadow="2"
     inkscape:pageopacity="0.0"
     inkscape:pagecheckerboard="0"
     inkscape:deskcolor="#d1d1d1"
     inkscape:document-units="mm"
     showgrid="false"
     inkscape:zoom="1.0494603"
     inkscape:cx="75.276788"
     inkscape:cy="274.42677"
     inkscape:window-width="2560"
     inkscape:window-height="1013"
     inkscape:window-x="0"
     inkscape:window-y="0"
     inkscape:window-maximized="1"
     inkscape:current-layer="layer1" /><defs
     id="defs2" /><g
     inkscape:label="Layer 1"
     inkscape:groupmode="layer"
     id="layer1"><path
       style="fill:#11111b;stroke-width:0.999998;fill-opacity:1"
       d="M 28.850607,124.09126 C 22.9383,122.50941 17.994316,118.3566 14.994734,112.4527 c -1.318575,-2.59528 -1.583641,-3.76953 -1.778469,-7.8787 -0.19524,-4.11785 -0.06578,-5.239053 0.879224,-7.614323 2.54404,-6.394506 9.379414,-14.369352 20.213132,-23.582713 2.582556,-2.196295 4.576683,-4.185607 4.431392,-4.420688 C 38.594717,68.721191 35.795512,67.142261 32.519545,65.44754 22.082406,60.048218 17.639219,55.921008 15.877639,49.989127 14.83608,46.481812 14.931807,44.590595 16.367352,40.314174 19.480345,31.040731 27.376185,21.988485 37.237621,16.387288 48.896856,9.7649634 61.648472,8.7584364 73.162272,13.551643 c 10.53149,4.384268 27.798768,16.973162 37.662108,27.457961 8.45433,8.987019 11.11415,13.665471 11.45624,20.150837 0.41664,7.899315 -1.74014,11.687923 -12.75697,22.408892 -13.642608,13.276255 -34.000147,27.608247 -49.103921,34.569837 -13.13969,6.0563 -23.722178,8.05153 -31.569122,5.95209 z m 12.616529,-8.80097 c 7.143099,-1.38468 13.436538,-3.61119 22.20229,-7.85478 17.394045,-8.420623 34.016183,-20.220266 46.108514,-32.731308 8.0464,-8.325007 11.28987,-14.35658 10.09879,-18.779846 C 116.76874,44.382162 84.463629,17.338167 67.70003,12.245008 63.145746,10.861312 53.256427,10.972114 48.021119,12.465493 33.572631,16.586944 19.784003,29.369621 17.650297,40.620606 c -0.796262,4.198677 0.02462,6.171568 4.295357,10.323507 3.995797,3.884637 9.814307,7.417578 18.214714,11.05979 2.72578,1.181825 4.955966,2.284464 4.955966,2.450299 0,0.165833 -3.2595,3.130141 -7.243332,6.587356 -9.529671,8.269941 -17.500858,16.384988 -19.653454,20.00815 -3.61815,6.089932 -3.81724,10.924282 -0.705994,17.143302 1.868382,3.73468 4.398847,6.09252 7.93952,7.39792 2.528357,0.93217 10.418593,0.78406 16.014062,-0.30064 z M 28.596454,110.70665 C 22.02741,109.10741 17.893119,102.12382 19.653022,95.599489 20.967197,90.727563 27.575165,83.368816 41.273741,71.522296 44.891442,68.39371 48.26531,65.307731 48.771225,64.664564 50.686142,62.230137 50.354831,61.954637 38.626978,56.229005 27.030399,50.56746 21.77865,47.155375 20.717272,44.592986 18.326568,38.821317 24.017699,29.190999 34.309203,21.593232 c 6.164621,-4.55107 8.527302,-5.821823 12.884145,-6.929666 9.78685,-2.488564 15.948062,-1.816948 25.356475,2.764036 10.899784,5.307145 19.793959,11.918059 30.128037,22.393762 6.18648,6.271243 9.14088,9.985592 10.87166,13.668077 2.24306,4.772452 1.54117,6.856904 -4.44228,13.19254 C 99.590689,76.7587 86.389205,87.524618 73.459987,95.752624 65.703741,100.6886 54.318172,106.4834 48.855766,108.27515 c -7.427329,2.43631 -16.008907,3.46625 -20.259312,2.4315 z M 72.713085,52.214614 c 3.438569,-1.286532 6.723339,-4.068484 7.468001,-6.324825 1.650447,-5.000912 -4.384656,-11.771295 -12.664561,-14.207535 -7.111961,-2.092589 -11.893856,-0.07548 -13.581226,5.728871 -1.085748,3.734851 -0.686186,6.774519 1.196234,9.100309 2.376597,2.936362 9.737583,6.517092 13.728943,6.678403 0.618539,0.02499 2.352213,-0.413853 3.852609,-0.975223 z m -1.827776,-3.528193 c -1.29837,-1.310756 -5.029315,-2.237227 -7.766833,-1.928671 -2.184834,0.246264 -2.390257,0.163414 -3.301956,-1.331741 -0.534699,-0.87689 -0.973035,-2.118113 -0.97408,-2.758279 -0.0033,-1.972579 1.918114,-5.142085 3.332257,-5.497011 3.147039,-0.789857 9.149273,1.481489 11.594597,4.387588 1.8436,2.190994 1.746126,4.144928 -0.315015,6.31475 -1.596553,1.680734 -1.682761,1.708027 -2.56897,0.813364 z"
       id="path13360" /></g></svg>
